<svg xmlns="http://www.w3.org/2000/svg" width="500" height="500" style="width:100%;height:100%;transform:translate3d(0,0,0);content-visibility:visible" viewBox="0 0 500 500"><defs><clipPath id="a"><path d="M0 0h500v500H0z"/></clipPath><clipPath id="c"><path d="M0 0h500v500H0z"/></clipPath><clipPath id="b"><path d="M0 0h500v500H0z"/></clipPath></defs><g clip-path="url(#a)"><g clip-path="url(#b)" style="display:block"><path fill="#121331" d="m8.707 7.144-3.76-3.759A7.696 7.696 0 0 0 6.5-1.25C6.5-5.523 3.023-9-1.25-9S-9-5.523-9-1.25-5.523 6.5-1.25 6.5a7.702 7.702 0 0 0 4.804-1.68l3.739 3.738a.997.997 0 0 0 1.414 0 .999.999 0 0 0 0-1.414zM-7.5-1.25A6.257 6.257 0 0 1-1.25-7.5 6.257 6.257 0 0 1 5-1.25 6.257 6.257 0 0 1-1.25 5 6.257 6.257 0 0 1-7.5-1.25z" class="primary design" style="display:block" transform="translate(250 250) scale(20.83)"/><path class="primary design" style="display:none"/><path fill="none" class="primary design" style="display:none"/><g class="primary design" style="display:none"><path/><path fill="none"/></g></g><g clip-path="url(#c)" opacity="0" style="display:block"><path class="primary design" style="display:none"/><path fill="none" class="primary design" style="display:none"/><g class="primary design" style="display:none"><path/><path fill="none"/></g></g><g class="com" style="display:none"><path/><path/><path/><path/><path/><path/><path/><path/><path/><path/><path/><path/></g></g></svg>